<svg xmlns="http://www.w3.org/2000/svg" xmlns:xlink="http://www.w3.org/1999/xlink" width="500" zoomAndPan="magnify" viewBox="0 0 375 374.999991" height="500" preserveAspectRatio="xMidYMid meet" version="1.0"><defs><g/></defs><rect x="-37.5" width="450" fill="#ffffff" y="-37.499999" height="449.999989" fill-opacity="1"/><rect x="-37.5" width="450" fill="#fbfaf9" y="-37.499999" height="449.999989" fill-opacity="1"/><g fill="#231f20" fill-opacity="1"><g transform="translate(9.760155, 295.267841)"><g><path d="M 161.808594 -127.789062 C 161.808594 -148.070312 162.460938 -157.882812 164.207031 -174.457031 L 122.773438 -174.457031 C 124.519531 -157.882812 125.171875 -148.070312 125.171875 -127.789062 L 125.171875 -89.625 L 54.300781 -89.625 L 54.300781 -127.789062 C 54.300781 -148.070312 54.953125 -157.882812 56.699219 -174.457031 L 15.265625 -174.457031 C 17.007812 -157.882812 17.664062 -148.070312 17.664062 -127.789062 L 17.664062 -46.667969 C 17.664062 -26.386719 17.007812 -16.574219 15.265625 0 L 56.699219 0 C 54.953125 -16.574219 54.300781 -26.386719 54.300781 -46.667969 L 54.300781 -84.828125 L 125.171875 -84.828125 L 125.171875 -46.667969 C 125.171875 -26.386719 124.519531 -16.574219 122.773438 0 L 164.207031 0 C 162.460938 -16.574219 161.808594 -26.386719 161.808594 -46.667969 Z M 161.808594 -127.789062 "/></g></g></g><g fill="#231f20" fill-opacity="1"><g transform="translate(178.327939, 295.267841)"><g><path d="M 157.226562 -23.332031 L 90.28125 -110.34375 L 131.058594 -152.429688 C 138.910156 -160.28125 144.582031 -165.953125 155.484375 -174.457031 L 144.144531 -174.457031 C 138.472656 -165.953125 133.242188 -160.5 124.519531 -151.777344 L 54.300781 -80.03125 L 54.300781 -127.789062 C 54.300781 -148.070312 54.953125 -157.882812 56.699219 -174.457031 L 15.265625 -174.457031 C 17.007812 -157.882812 17.664062 -148.070312 17.664062 -127.789062 L 17.664062 -46.667969 C 17.664062 -26.386719 17.007812 -16.574219 15.265625 0 L 56.699219 0 C 54.953125 -16.574219 54.300781 -26.386719 54.300781 -46.667969 L 54.300781 -73.488281 L 63.894531 -83.304688 L 110.78125 -23.332031 C 119.066406 -12.210938 122.121094 -8.503906 126.261719 0 L 180.34375 0 C 169.660156 -8.285156 164.644531 -13.738281 157.226562 -23.332031 Z M 157.226562 -23.332031 "/></g></g></g></svg>