<svg xmlns="http://www.w3.org/2000/svg" xmlns:xlink="http://www.w3.org/1999/xlink" width="500" zoomAndPan="magnify" viewBox="0 0 375 374.999991" height="500" preserveAspectRatio="xMidYMid meet" version="1.0"><defs><g/></defs><rect x="-37.5" width="450" fill="#ffffff" y="-37.499999" height="449.999989" fill-opacity="1"/><rect x="-37.5" width="450" fill="#231f20" y="-37.499999" height="449.999989" fill-opacity="1"/><g fill="#fbfaf9" fill-opacity="1"><g transform="translate(-4.774588, 273.554807)"><g><path d="M 175.046875 -138.246094 C 175.046875 -160.183594 175.753906 -170.800781 177.640625 -188.730469 L 132.820312 -188.730469 C 134.707031 -170.800781 135.414062 -160.183594 135.414062 -138.246094 L 135.414062 -96.960938 L 58.742188 -96.960938 L 58.742188 -138.246094 C 58.742188 -160.183594 59.449219 -170.800781 61.335938 -188.730469 L 16.515625 -188.730469 C 18.402344 -170.800781 19.109375 -160.183594 19.109375 -138.246094 L 19.109375 -50.484375 C 19.109375 -28.546875 18.402344 -17.929688 16.515625 0 L 61.335938 0 C 59.449219 -17.929688 58.742188 -28.546875 58.742188 -50.484375 L 58.742188 -91.769531 L 135.414062 -91.769531 L 135.414062 -50.484375 C 135.414062 -28.546875 134.707031 -17.929688 132.820312 0 L 177.640625 0 C 175.753906 -17.929688 175.046875 -28.546875 175.046875 -50.484375 Z M 175.046875 -138.246094 "/></g></g></g><g fill="#fbfaf9" fill-opacity="1"><g transform="translate(177.585148, 273.554807)"><g><path d="M 170.09375 -25.242188 L 97.667969 -119.371094 L 141.785156 -164.902344 C 150.277344 -173.394531 156.410156 -179.53125 168.207031 -188.730469 L 155.9375 -188.730469 C 149.804688 -179.53125 144.140625 -173.632812 134.707031 -164.195312 L 58.742188 -86.578125 L 58.742188 -138.246094 C 58.742188 -160.183594 59.449219 -170.800781 61.335938 -188.730469 L 16.515625 -188.730469 C 18.402344 -170.800781 19.109375 -160.183594 19.109375 -138.246094 L 19.109375 -50.484375 C 19.109375 -28.546875 18.402344 -17.929688 16.515625 0 L 61.335938 0 C 59.449219 -17.929688 58.742188 -28.546875 58.742188 -50.484375 L 58.742188 -79.503906 L 69.121094 -90.117188 L 119.84375 -25.242188 C 128.808594 -13.210938 132.109375 -9.199219 136.59375 0 L 195.101562 0 C 183.539062 -8.964844 178.113281 -14.863281 170.09375 -25.242188 Z M 170.09375 -25.242188 "/></g></g></g></svg>