<svg xmlns="http://www.w3.org/2000/svg" xmlns:xlink="http://www.w3.org/1999/xlink" width="500" zoomAndPan="magnify" viewBox="0 0 375 374.999991" height="500" preserveAspectRatio="xMidYMid meet" version="1.0"><defs><g/></defs><rect x="-37.5" width="450" fill="#ffffff" y="-37.499999" height="449.999989" fill-opacity="1"/><rect x="-37.5" width="450" fill="#fbfaf9" y="-37.499999" height="449.999989" fill-opacity="1"/><g fill="#231f20" fill-opacity="1"><g transform="translate(43.176703, 259.616186)"><g><path d="M 131.390625 -103.765625 C 131.390625 -120.234375 131.921875 -128.203125 133.339844 -141.660156 L 99.695312 -141.660156 C 101.109375 -128.203125 101.640625 -120.234375 101.640625 -103.765625 L 101.640625 -72.777344 L 44.09375 -72.777344 L 44.09375 -103.765625 C 44.09375 -120.234375 44.625 -128.203125 46.039062 -141.660156 L 12.394531 -141.660156 C 13.8125 -128.203125 14.34375 -120.234375 14.34375 -103.765625 L 14.34375 -37.894531 C 14.34375 -21.425781 13.8125 -13.457031 12.394531 0 L 46.039062 0 C 44.625 -13.457031 44.09375 -21.425781 44.09375 -37.894531 L 44.09375 -68.882812 L 101.640625 -68.882812 L 101.640625 -37.894531 C 101.640625 -21.425781 101.109375 -13.457031 99.695312 0 L 133.339844 0 C 131.921875 -13.457031 131.390625 -21.425781 131.390625 -37.894531 Z M 131.390625 -103.765625 "/></g></g></g><g fill="#231f20" fill-opacity="1"><g transform="translate(180.051399, 259.616186)"><g><path d="M 127.671875 -18.945312 L 73.308594 -89.601562 L 106.421875 -123.777344 C 112.796875 -130.152344 117.402344 -134.753906 126.253906 -141.660156 L 117.046875 -141.660156 C 112.441406 -134.753906 108.195312 -130.328125 101.109375 -123.246094 L 44.09375 -64.988281 L 44.09375 -103.765625 C 44.09375 -120.234375 44.625 -128.203125 46.039062 -141.660156 L 12.394531 -141.660156 C 13.8125 -128.203125 14.34375 -120.234375 14.34375 -103.765625 L 14.34375 -37.894531 C 14.34375 -21.425781 13.8125 -13.457031 12.394531 0 L 46.039062 0 C 44.625 -13.457031 44.09375 -21.425781 44.09375 -37.894531 L 44.09375 -59.675781 L 51.882812 -67.644531 L 89.953125 -18.945312 C 96.683594 -9.917969 99.164062 -6.90625 102.527344 0 L 146.441406 0 C 137.765625 -6.730469 133.691406 -11.15625 127.671875 -18.945312 Z M 127.671875 -18.945312 "/></g></g></g></svg>